%TF.GenerationSoftware,KiCad,Pcbnew,6.0.5-2.fc36*%
%TF.CreationDate,2022-06-21T12:46:16-03:00*%
%TF.ProjectId,module-pic-40pin,6d6f6475-6c65-42d7-9069-632d34307069,A*%
%TF.SameCoordinates,PX3508a90PY5e78920*%
%TF.FileFunction,Copper,L2,Bot*%
%TF.FilePolarity,Positive*%
%FSLAX46Y46*%
G04 Gerber Fmt 4.6, Leading zero omitted, Abs format (unit mm)*
G04 Created by KiCad (PCBNEW 6.0.5-2.fc36) date 2022-06-21 12:46:16*
%MOMM*%
%LPD*%
G01*
G04 APERTURE LIST*
%TA.AperFunction,Profile*%
%ADD10C,0.100000*%
%TD*%
%TA.AperFunction,ComponentPad*%
%ADD11C,2.000000*%
%TD*%
%TA.AperFunction,ComponentPad*%
%ADD12R,2.000000X2.000000*%
%TD*%
%TA.AperFunction,ComponentPad*%
%ADD13R,1.700000X1.700000*%
%TD*%
%TA.AperFunction,ComponentPad*%
%ADD14O,1.700000X1.700000*%
%TD*%
%TA.AperFunction,ComponentPad*%
%ADD15O,2.000000X2.000000*%
%TD*%
%TA.AperFunction,ComponentPad*%
%ADD16R,1.800000X1.800000*%
%TD*%
%TA.AperFunction,ComponentPad*%
%ADD17C,1.800000*%
%TD*%
%TA.AperFunction,ComponentPad*%
%ADD18R,2.800000X2.800000*%
%TD*%
%TA.AperFunction,ComponentPad*%
%ADD19O,2.800000X2.800000*%
%TD*%
%TA.AperFunction,ComponentPad*%
%ADD20C,1.600000*%
%TD*%
%TA.AperFunction,ComponentPad*%
%ADD21R,4.000000X2.000000*%
%TD*%
%TA.AperFunction,ComponentPad*%
%ADD22O,3.300000X2.000000*%
%TD*%
%TA.AperFunction,ComponentPad*%
%ADD23O,2.000000X3.500000*%
%TD*%
%TA.AperFunction,Conductor*%
%ADD24C,1.000000*%
%TD*%
%TA.AperFunction,Conductor*%
%ADD25C,1.500000*%
%TD*%
%TA.AperFunction,Conductor*%
%ADD26C,1.200000*%
%TD*%
G04 APERTURE END LIST*
D10*
X88463Y63761537D02*
X8463Y4988463D01*
X5078463Y68751537D02*
G75*
G03*
X88463Y63761537I-3J-4989997D01*
G01*
X102000000Y4990000D02*
X102061548Y63801548D01*
X8463Y4988463D02*
G75*
G03*
X4998463Y-1537I4990037J37D01*
G01*
X97010000Y0D02*
X4998463Y-1537D01*
X97071548Y68791548D02*
X5078463Y68751537D01*
X102061548Y63801548D02*
G75*
G03*
X97071548Y68791548I-4990048J-48D01*
G01*
X97010000Y0D02*
G75*
G03*
X102000000Y4990000I0J4990000D01*
G01*
D11*
%TO.P,SW2,1,1*%
%TO.N,GND*%
X70419689Y55687689D03*
X76919689Y55687689D03*
%TO.P,SW2,2,2*%
%TO.N,/VPP*%
X70419689Y51187689D03*
X76919689Y51187689D03*
%TD*%
%TO.P,R1,1*%
%TO.N,Net-(J1-Pad2)*%
X82077089Y3298089D03*
%TO.P,R1,2*%
%TO.N,GND*%
X82077089Y15998089D03*
%TD*%
D12*
%TO.P,D1,1,K*%
%TO.N,GND*%
X81213489Y19706489D03*
D11*
%TO.P,D1,2,A*%
%TO.N,Net-(D1-Pad2)*%
X78673489Y19706489D03*
%TD*%
D13*
%TO.P,J7,1,Pin_1*%
%TO.N,/RB0*%
X39506689Y10384689D03*
D14*
%TO.P,J7,2,Pin_2*%
%TO.N,/RB1*%
X42046689Y10384689D03*
%TO.P,J7,3,Pin_3*%
%TO.N,/RB2*%
X44586689Y10384689D03*
%TO.P,J7,4,Pin_4*%
%TO.N,/RB3*%
X47126689Y10384689D03*
%TO.P,J7,5,Pin_5*%
%TO.N,/RB4*%
X49666689Y10384689D03*
%TO.P,J7,6,Pin_6*%
%TO.N,/RB5*%
X52206689Y10384689D03*
%TO.P,J7,7,Pin_7*%
%TO.N,/RB6*%
X54746689Y10384689D03*
%TO.P,J7,8,Pin_8*%
%TO.N,/RB7*%
X57286689Y10384689D03*
%TD*%
D12*
%TO.P,J1,1,Pin_1*%
%TO.N,/RB0*%
X87715889Y8657489D03*
D11*
%TO.P,J1,2,Pin_2*%
%TO.N,Net-(J1-Pad2)*%
X90255889Y8657489D03*
%TO.P,J1,3,Pin_3*%
%TO.N,unconnected-(J1-Pad3)*%
X92795889Y8657489D03*
%TD*%
D12*
%TO.P,U1,1,~{MCLR}/Vpp*%
%TO.N,/VPP*%
X62569889Y38070689D03*
D11*
%TO.P,U1,2,AN0/RA0*%
%TO.N,/RA0*%
X60029889Y38070689D03*
%TO.P,U1,3,AN1/RA1*%
%TO.N,/RA1*%
X57489889Y38070689D03*
%TO.P,U1,4,CVref/Vref-/AN2/RA2*%
%TO.N,/RA2*%
X54949889Y38070689D03*
%TO.P,U1,5,Vref+/AN3/RA3*%
%TO.N,/RA3*%
X52409889Y38070689D03*
%TO.P,U1,6,C1OUT/T0CKI/RA4*%
%TO.N,/RA4*%
X49869889Y38070689D03*
%TO.P,U1,7,~{SS}/C2OUT/AN4/RA5*%
%TO.N,/RA5*%
X47329889Y38070689D03*
%TO.P,U1,8,RE0/~{RD}/AN5*%
%TO.N,/RE0*%
X44789889Y38070689D03*
%TO.P,U1,9,RE1/~{WR}/AN6*%
%TO.N,/RE1*%
X42249889Y38070689D03*
%TO.P,U1,10,RE2/~{CS}/AN7*%
%TO.N,/RE2*%
X39709889Y38070689D03*
%TO.P,U1,11,VDD*%
%TO.N,+5V*%
X37169889Y38070689D03*
%TO.P,U1,12,VSS*%
%TO.N,GND*%
X34629889Y38070689D03*
%TO.P,U1,13,OSC1/CLKI*%
%TO.N,Net-(C1-Pad1)*%
X32089889Y38070689D03*
%TO.P,U1,14,OSC2/CLKO*%
%TO.N,Net-(C2-Pad2)*%
X29549889Y38070689D03*
%TO.P,U1,15,T1OSO/T1CKI/RC0*%
%TO.N,/RC0*%
X27009889Y38070689D03*
%TO.P,U1,16,T1OSI/CCP2/RC1*%
%TO.N,/RC1*%
X24469889Y38070689D03*
%TO.P,U1,17,CCP1/RC2*%
%TO.N,/RC2*%
X21929889Y38070689D03*
%TO.P,U1,18,SCK/SCL/RC3*%
%TO.N,/RC3*%
X19389889Y38070689D03*
%TO.P,U1,19,RD0/PSP0*%
%TO.N,/RD0*%
X16849889Y38070689D03*
D15*
%TO.P,U1,20,RD1/PSP1*%
%TO.N,/RD1*%
X14309889Y38070689D03*
%TO.P,U1,21,RD2/PSP2*%
%TO.N,/RD2*%
X14309889Y22830689D03*
D11*
%TO.P,U1,22,RD3/PSP3*%
%TO.N,/RD3*%
X16849889Y22830689D03*
%TO.P,U1,23,SDI/SDA/RC4*%
%TO.N,/RC4*%
X19389889Y22830689D03*
%TO.P,U1,24,SDO/RC5*%
%TO.N,/RC5*%
X21929889Y22830689D03*
%TO.P,U1,25,CK/TX/RC6*%
%TO.N,/RC6*%
X24469889Y22830689D03*
%TO.P,U1,26,DT/RX/RC7*%
%TO.N,/RC7*%
X27009889Y22830689D03*
%TO.P,U1,27,RD4/PSP4*%
%TO.N,/RD4*%
X29549889Y22830689D03*
%TO.P,U1,28,RD5/PSP5*%
%TO.N,/RD5*%
X32089889Y22830689D03*
%TO.P,U1,29,RD6/PSP6*%
%TO.N,/RD6*%
X34629889Y22830689D03*
%TO.P,U1,30,RD7/PSP7*%
%TO.N,/RD7*%
X37169889Y22830689D03*
%TO.P,U1,31,VSS*%
%TO.N,GND*%
X39709889Y22830689D03*
%TO.P,U1,32,VDD*%
%TO.N,+5V*%
X42249889Y22830689D03*
%TO.P,U1,33,INT/RB0*%
%TO.N,/RB0*%
X44789889Y22830689D03*
%TO.P,U1,34,RB1*%
%TO.N,/RB1*%
X47329889Y22830689D03*
%TO.P,U1,35,RB2*%
%TO.N,/RB2*%
X49869889Y22830689D03*
%TO.P,U1,36,PGM/RB3*%
%TO.N,/RB3*%
X52409889Y22830689D03*
%TO.P,U1,37,RB4*%
%TO.N,/RB4*%
X54949889Y22830689D03*
%TO.P,U1,38,RB5*%
%TO.N,/RB5*%
X57489889Y22830689D03*
%TO.P,U1,39,PGC/RB6*%
%TO.N,/RB6*%
X60029889Y22830689D03*
%TO.P,U1,40,PGD/RB7*%
%TO.N,/RB7*%
X62569889Y22830689D03*
%TD*%
D13*
%TO.P,J6,1,Pin_1*%
%TO.N,/RC0*%
X91271889Y38019889D03*
D14*
%TO.P,J6,2,Pin_2*%
%TO.N,/RC1*%
X91271889Y35479889D03*
%TO.P,J6,3,Pin_3*%
%TO.N,/RC2*%
X91271889Y32939889D03*
%TO.P,J6,4,Pin_4*%
%TO.N,/RC3*%
X91271889Y30399889D03*
%TO.P,J6,5,Pin_5*%
%TO.N,/RC4*%
X91271889Y27859889D03*
%TO.P,J6,6,Pin_6*%
%TO.N,/RC5*%
X91271889Y25319889D03*
%TO.P,J6,7,Pin_7*%
%TO.N,/RC6*%
X91271889Y22779889D03*
%TO.P,J6,8,Pin_8*%
%TO.N,/RC7*%
X91271889Y20239889D03*
%TD*%
D11*
%TO.P,R3,1*%
%TO.N,Net-(D3-Pad2)*%
X6029489Y58060489D03*
%TO.P,R3,2*%
%TO.N,+5V*%
X6029489Y45360489D03*
%TD*%
D16*
%TO.P,D3,1,K*%
%TO.N,GND*%
X6105689Y64771089D03*
D17*
%TO.P,D3,2,A*%
%TO.N,Net-(D3-Pad2)*%
X6105689Y62231089D03*
%TD*%
D12*
%TO.P,J8,1,Pin_1*%
%TO.N,/RD0*%
X11719689Y10439689D03*
D11*
%TO.P,J8,2,Pin_2*%
%TO.N,/RD1*%
X14259689Y10439689D03*
%TO.P,J8,3,Pin_3*%
%TO.N,/RD2*%
X16799689Y10439689D03*
%TO.P,J8,4,Pin_4*%
%TO.N,/RD3*%
X19339689Y10439689D03*
%TO.P,J8,5,Pin_5*%
%TO.N,/RD4*%
X21879689Y10439689D03*
%TO.P,J8,6,Pin_6*%
%TO.N,/RD5*%
X24419689Y10439689D03*
%TO.P,J8,7,Pin_7*%
%TO.N,/RD6*%
X26959689Y10439689D03*
%TO.P,J8,8,Pin_8*%
%TO.N,/RD7*%
X29499689Y10439689D03*
%TD*%
D12*
%TO.P,J3,1,Pin_1*%
%TO.N,+5V*%
X74177689Y61756189D03*
D11*
%TO.P,J3,2,Pin_2*%
%TO.N,GND*%
X74177689Y64296189D03*
%TO.P,J3,3,Pin_3*%
%TO.N,+5V*%
X76717689Y61756189D03*
%TO.P,J3,4,Pin_4*%
%TO.N,GND*%
X76717689Y64296189D03*
%TO.P,J3,5,Pin_5*%
%TO.N,+5V*%
X79257689Y61756189D03*
%TO.P,J3,6,Pin_6*%
%TO.N,GND*%
X79257689Y64296189D03*
%TO.P,J3,7,Pin_7*%
%TO.N,+5V*%
X81797689Y61756189D03*
%TO.P,J3,8,Pin_8*%
%TO.N,GND*%
X81797689Y64296189D03*
%TD*%
D18*
%TO.P,D2,1,K*%
%TO.N,+5V*%
X35214089Y55672889D03*
D19*
%TO.P,D2,2,A*%
%TO.N,GND*%
X25054089Y55672889D03*
%TD*%
D11*
%TO.P,Y1,1,1*%
%TO.N,Net-(C2-Pad2)*%
X27486401Y47087689D03*
%TO.P,Y1,2,2*%
%TO.N,Net-(C1-Pad1)*%
X32366401Y47087689D03*
%TD*%
D12*
%TO.P,J4,1,Pin_1*%
%TO.N,unconnected-(J4-Pad1)*%
X91652889Y57654089D03*
D11*
%TO.P,J4,2,Pin_2*%
%TO.N,/RB6*%
X91652889Y55114089D03*
%TO.P,J4,3,Pin_3*%
%TO.N,/RB7*%
X91652889Y52574089D03*
%TO.P,J4,4,Pin_4*%
%TO.N,GND*%
X91652889Y50034089D03*
%TO.P,J4,5,Pin_5*%
%TO.N,+5V*%
X91652889Y47494089D03*
%TO.P,J4,6,Pin_6*%
%TO.N,/VPP*%
X91652889Y44954089D03*
%TD*%
%TO.P,SW1,1,1*%
%TO.N,/RB0*%
X64780889Y11567889D03*
X71280889Y11567889D03*
%TO.P,SW1,2,2*%
%TO.N,+5V*%
X71280889Y7067889D03*
X64780889Y7067889D03*
%TD*%
D12*
%TO.P,J5,1,Pin_1*%
%TO.N,/RA0*%
X61477689Y62645189D03*
D11*
%TO.P,J5,2,Pin_2*%
%TO.N,/RA1*%
X58937689Y62645189D03*
%TO.P,J5,3,Pin_3*%
%TO.N,/RA2*%
X56397689Y62645189D03*
%TO.P,J5,4,Pin_4*%
%TO.N,/RA3*%
X53857689Y62645189D03*
%TO.P,J5,5,Pin_5*%
%TO.N,/RA4*%
X51317689Y62645189D03*
%TO.P,J5,6,Pin_6*%
%TO.N,/RA5*%
X48777689Y62645189D03*
%TO.P,J5,7,Pin_7*%
%TO.N,/RE0*%
X46237689Y62645189D03*
%TO.P,J5,8,Pin_8*%
%TO.N,/RE1*%
X43697689Y62645189D03*
%TO.P,J5,9,Pin_9*%
%TO.N,/RE2*%
X41157689Y62645189D03*
%TD*%
D12*
%TO.P,C2,1*%
%TO.N,GND*%
X13674889Y48520889D03*
D11*
%TO.P,C2,2*%
%TO.N,Net-(C2-Pad2)*%
X13674889Y46020889D03*
%TD*%
%TO.P,R4,1*%
%TO.N,/VPP*%
X67472089Y46478089D03*
%TO.P,R4,2*%
%TO.N,+5V*%
X80172089Y46478089D03*
%TD*%
D12*
%TO.P,C1,1*%
%TO.N,Net-(C1-Pad1)*%
X19720089Y46036633D03*
D11*
%TO.P,C1,2*%
%TO.N,GND*%
X19720089Y48536633D03*
%TD*%
%TO.P,R2,1*%
%TO.N,Net-(D1-Pad2)*%
X77657489Y16074289D03*
%TO.P,R2,2*%
%TO.N,/RB1*%
X77657489Y3374289D03*
%TD*%
D20*
%TO.P,J2,*%
%TO.N,*%
X15300489Y64151289D03*
D21*
%TO.P,J2,1,Pin_1*%
%TO.N,+5V*%
X15300489Y55151289D03*
D22*
%TO.P,J2,2,Pin_2*%
%TO.N,GND*%
X15300489Y61151289D03*
D23*
%TO.P,J2,MP*%
%TO.N,N/C*%
X19800489Y62151289D03*
X10800489Y62151289D03*
%TD*%
D24*
%TO.N,GND*%
X35798289Y36013289D02*
X83423289Y36013289D01*
D25*
X100353289Y62745889D02*
X96531489Y66567689D01*
D26*
X9814089Y46630489D02*
X11704489Y48520889D01*
D25*
X80551289Y66567689D02*
X79257689Y65274089D01*
X15300489Y61151289D02*
X20778889Y55672889D01*
X14614689Y50364289D02*
X17892433Y50364289D01*
X15300489Y61606381D02*
X15300489Y61151289D01*
D24*
X30083289Y6041289D02*
X10296689Y6041289D01*
D25*
X76919689Y55687689D02*
X70419689Y55687689D01*
D24*
X83423289Y36013289D02*
X88858889Y41448889D01*
D26*
X9814089Y41550489D02*
X9814089Y46630489D01*
D24*
X88858889Y41448889D02*
X93557889Y41448889D01*
X34629889Y38070689D02*
X34629889Y50288089D01*
X94827889Y48383089D02*
X93176889Y50034089D01*
X34274289Y10232289D02*
X30083289Y6041289D01*
D25*
X84121789Y64296189D02*
X81797689Y64296189D01*
X6185409Y64850809D02*
X12056061Y64850809D01*
X25054089Y55672889D02*
X25054089Y53742489D01*
X91652889Y50034089D02*
X90992489Y50034089D01*
X88477889Y59940089D02*
X84121789Y64296189D01*
X20778889Y55672889D02*
X25054089Y55672889D01*
X25054089Y53742489D02*
X19848233Y48536633D01*
D24*
X93557889Y41448889D02*
X94827889Y42718889D01*
D25*
X100353289Y16341889D02*
X100353289Y62745889D01*
X88477889Y52548689D02*
X88477889Y59940089D01*
D26*
X6385089Y9952889D02*
X6385089Y38121489D01*
D25*
X74177689Y64296189D02*
X76717689Y64296189D01*
D24*
X34629889Y38070689D02*
X34629889Y37181689D01*
X93176889Y50034089D02*
X91652889Y50034089D01*
X39709889Y20544689D02*
X34274289Y15109089D01*
D25*
X70419689Y55687689D02*
X70149689Y55687689D01*
X19848233Y48536633D02*
X19720089Y48536633D01*
X79257689Y65274089D02*
X79257689Y64296189D01*
X81213489Y19706489D02*
X81213489Y16861689D01*
X70419689Y62811489D02*
X70419689Y55687689D01*
X17892433Y50364289D02*
X19720089Y48536633D01*
D26*
X6385089Y38121489D02*
X9814089Y41550489D01*
D25*
X96531489Y66567689D02*
X80551289Y66567689D01*
D24*
X39709889Y22830689D02*
X39709889Y20544689D01*
D25*
X84769489Y13305689D02*
X97317089Y13305689D01*
X90992489Y50034089D02*
X88477889Y52548689D01*
D24*
X34629889Y37181689D02*
X35798289Y36013289D01*
D25*
X71904389Y64296189D02*
X70419689Y62811489D01*
X97317089Y13305689D02*
X100353289Y16341889D01*
X76717689Y64296189D02*
X79257689Y64296189D01*
D26*
X11704489Y48520889D02*
X13674889Y48520889D01*
D25*
X74177689Y64296189D02*
X71904389Y64296189D01*
D24*
X94827889Y42718889D02*
X94827889Y48383089D01*
X29245089Y55672889D02*
X25054089Y55672889D01*
D25*
X13674889Y48520889D02*
X13674889Y49424489D01*
D24*
X34274289Y15109089D02*
X34274289Y10232289D01*
D25*
X12056061Y64850809D02*
X15300489Y61606381D01*
X79257689Y64296189D02*
X81797689Y64296189D01*
X81213489Y16861689D02*
X82077089Y15998089D01*
D24*
X10296689Y6041289D02*
X6385089Y9952889D01*
X34629889Y50288089D02*
X29245089Y55672889D01*
D25*
X6105689Y64771089D02*
X6185409Y64850809D01*
X82077089Y15998089D02*
X84769489Y13305689D01*
X13674889Y49424489D02*
X14614689Y50364289D01*
D24*
%TO.N,+5V*%
X8932689Y1207689D02*
X38403289Y1207689D01*
D25*
X80248289Y46554289D02*
X80172089Y46478089D01*
D24*
X36661889Y14728089D02*
X36661889Y3399689D01*
D25*
X79029089Y53437689D02*
X80248289Y52218489D01*
X85709289Y50415089D02*
X85709289Y57844589D01*
X79257689Y58339889D02*
X82991489Y54606089D01*
X39016089Y66637689D02*
X63466889Y66637689D01*
D24*
X69318689Y1207689D02*
X71280889Y3169889D01*
D25*
X79257689Y61756189D02*
X79257689Y58339889D01*
X35214089Y55672889D02*
X35214089Y62835689D01*
D24*
X2041689Y8098689D02*
X8932689Y1207689D01*
D25*
X37169889Y53717089D02*
X35214089Y55672889D01*
X82991489Y47468689D02*
X82000889Y46478089D01*
X81797689Y61756189D02*
X79257689Y61756189D01*
X8225689Y55151289D02*
X6029489Y52955089D01*
X80248289Y52218489D02*
X80248289Y46554289D01*
X85709289Y57844589D02*
X81797689Y61756189D01*
X63466889Y66637689D02*
X65719489Y64385089D01*
X15300489Y55151289D02*
X8225689Y55151289D01*
X37169889Y38070689D02*
X37169889Y53717089D01*
X67827689Y53437689D02*
X79029089Y53437689D01*
D24*
X38853889Y1207689D02*
X69318689Y1207689D01*
D25*
X35214089Y62835689D02*
X39016089Y66637689D01*
X6029489Y45360489D02*
X1559089Y49830889D01*
D24*
X38403289Y1207689D02*
X38633289Y1437689D01*
D25*
X65719489Y55545889D02*
X67827689Y53437689D01*
X88630289Y47494089D02*
X91652889Y47494089D01*
X4253289Y66847689D02*
X24039289Y66847689D01*
D24*
X42249889Y22830689D02*
X42249889Y20316089D01*
D25*
X6029489Y52955089D02*
X6029489Y45360489D01*
X76717689Y61756189D02*
X74177689Y61756189D01*
D24*
X2041689Y41372689D02*
X2041689Y8098689D01*
D25*
X88630289Y47494089D02*
X85709289Y50415089D01*
D24*
X6029489Y45360489D02*
X2041689Y41372689D01*
D25*
X82991489Y54606089D02*
X82991489Y47468689D01*
X79257689Y61756189D02*
X76717689Y61756189D01*
X24039289Y66847689D02*
X35214089Y55672889D01*
X65719489Y64385089D02*
X65719489Y55545889D01*
D24*
X36661889Y3399689D02*
X38853889Y1207689D01*
X42249889Y20316089D02*
X36661889Y14728089D01*
D25*
X71280889Y7067889D02*
X64780889Y7067889D01*
X1559089Y64153489D02*
X4253289Y66847689D01*
X82000889Y46478089D02*
X80172089Y46478089D01*
D24*
X71280889Y3169889D02*
X71280889Y7067889D01*
D25*
X1559089Y49830889D02*
X1559089Y64153489D01*
D24*
%TO.N,/RB7*%
X57286689Y14423289D02*
X62569889Y19706489D01*
X93583289Y17344289D02*
X96603289Y20364289D01*
X83169289Y23618089D02*
X89443089Y17344289D01*
X62569889Y22830689D02*
X63357289Y23618089D01*
X57286689Y10384689D02*
X57286689Y14423289D01*
X94599289Y52574089D02*
X91652889Y52574089D01*
X96603289Y20364289D02*
X96603289Y50570089D01*
X62569889Y19706489D02*
X62569889Y22830689D01*
X96603289Y50570089D02*
X94599289Y52574089D01*
X89443089Y17344289D02*
X93583289Y17344289D01*
X63357289Y23618089D02*
X83169289Y23618089D01*
%TO.N,/RB6*%
X54746689Y10384689D02*
X54746689Y8098689D01*
X95335889Y15261489D02*
X98153289Y18078889D01*
X88998589Y15261489D02*
X95335889Y15261489D01*
X60029889Y20036689D02*
X60029889Y22830689D01*
X54746689Y10384689D02*
X54746689Y14753489D01*
X98153289Y53515889D02*
X96555089Y55114089D01*
X56016689Y6828689D02*
X58150289Y6828689D01*
X59217089Y7895489D02*
X59217089Y12950089D01*
X98153289Y18078889D02*
X98153289Y53515889D01*
X96555089Y55114089D02*
X91778559Y55114089D01*
X68411889Y22144889D02*
X82115189Y22144889D01*
X54746689Y8098689D02*
X56016689Y6828689D01*
X82115189Y22144889D02*
X88998589Y15261489D01*
X59217089Y12950089D02*
X68411889Y22144889D01*
X54746689Y14753489D02*
X60029889Y20036689D01*
X58150289Y6828689D02*
X59217089Y7895489D01*
D25*
%TO.N,/VPP*%
X76919689Y51187689D02*
X70419689Y51187689D01*
X85861689Y43328489D02*
X77657489Y43328489D01*
X77657489Y43328489D02*
X76919689Y44066289D01*
X87487289Y44954089D02*
X85861689Y43328489D01*
X67472089Y42972889D02*
X67472089Y46478089D01*
X67472089Y48240089D02*
X70419689Y51187689D01*
X76919689Y44066289D02*
X76919689Y51187689D01*
X67472089Y46478089D02*
X67472089Y48240089D01*
X62569889Y38070689D02*
X67472089Y42972889D01*
X91652889Y44954089D02*
X87487289Y44954089D01*
%TO.N,Net-(D3-Pad2)*%
X6105689Y62231089D02*
X6105689Y58136689D01*
X6105689Y58136689D02*
X6029489Y58060489D01*
D24*
%TO.N,Net-(J1-Pad2)*%
X89798689Y11273689D02*
X90255889Y10816489D01*
X90255889Y10816489D02*
X90255889Y8657489D01*
X82077089Y8581289D02*
X84769489Y11273689D01*
X82077089Y3298089D02*
X82077089Y8581289D01*
X84769489Y11273689D02*
X89798689Y11273689D01*
D25*
%TO.N,/RA0*%
X60029889Y41321889D02*
X61477689Y42769689D01*
X60029889Y38070689D02*
X60029889Y41321889D01*
X61477689Y42769689D02*
X61477689Y62645189D01*
%TO.N,/RA1*%
X57489889Y43557089D02*
X58937689Y45004889D01*
X57489889Y38070689D02*
X57489889Y43557089D01*
X58937689Y45004889D02*
X58937689Y62645189D01*
%TO.N,/RA2*%
X54949889Y38070689D02*
X54949889Y45893889D01*
X54949889Y45893889D02*
X56397689Y47341689D01*
X56397689Y47341689D02*
X56397689Y62645189D01*
D24*
%TO.N,/RC0*%
X27009889Y36673689D02*
X27009889Y38070689D01*
X85582289Y34616289D02*
X29067289Y34616289D01*
X91271889Y38019889D02*
X88985889Y38019889D01*
X29067289Y34616289D02*
X27009889Y36673689D01*
X88985889Y38019889D02*
X85582289Y34616289D01*
%TO.N,/RC1*%
X89036689Y35479889D02*
X86801489Y33244689D01*
X24469889Y36368889D02*
X24469889Y38070689D01*
X27594089Y33244689D02*
X24469889Y36368889D01*
X91271889Y35479889D02*
X89036689Y35479889D01*
X86801489Y33244689D02*
X27594089Y33244689D01*
%TO.N,/RC2*%
X21929889Y36216489D02*
X21929889Y38070689D01*
X88604889Y31923889D02*
X26222489Y31923889D01*
X89620889Y32939889D02*
X88604889Y31923889D01*
X26222489Y31923889D02*
X21929889Y36216489D01*
X91271889Y32939889D02*
X89620889Y32939889D01*
%TO.N,/RC3*%
X91271889Y30399889D02*
X91144889Y30526889D01*
D26*
X91271889Y30399889D02*
X91154969Y30516809D01*
D24*
X91144889Y30526889D02*
X24901689Y30526889D01*
X24901689Y30526889D02*
X19389889Y36038689D01*
X19389889Y36038689D02*
X19389889Y38070689D01*
%TO.N,/RD0*%
X9483889Y15540889D02*
X9483889Y37054689D01*
X11719689Y13305089D02*
X9483889Y15540889D01*
X11719689Y10439689D02*
X11719689Y13305089D01*
X15935489Y40686889D02*
X16849889Y39772489D01*
X13116089Y40686889D02*
X15935489Y40686889D01*
X9483889Y37054689D02*
X13116089Y40686889D01*
X16849889Y39772489D02*
X16849889Y38070689D01*
%TO.N,/RD1*%
X14259689Y10439689D02*
X14259689Y15337089D01*
X11846089Y17750689D02*
X11846089Y32609689D01*
X14309889Y35073489D02*
X14309889Y38070689D01*
X14259689Y15337089D02*
X11846089Y17750689D01*
X11846089Y32609689D02*
X14309889Y35073489D01*
%TO.N,/RD2*%
X16799689Y17140489D02*
X14309889Y19630289D01*
X14309889Y19630289D02*
X14309889Y22830689D01*
X16799689Y10439689D02*
X16799689Y17140489D01*
%TO.N,/RD3*%
X19339689Y10439689D02*
X19339689Y18334289D01*
X16849889Y20824089D02*
X16849889Y22830689D01*
X19339689Y18334289D02*
X16849889Y20824089D01*
%TO.N,/RC4*%
X91271889Y27859889D02*
X88528689Y27859889D01*
X22234689Y29206089D02*
X19389889Y26361289D01*
X88528689Y27859889D02*
X87182489Y29206089D01*
X87182489Y29206089D02*
X22234689Y29206089D01*
X19389889Y26361289D02*
X19389889Y22830689D01*
%TO.N,/RC5*%
X91271889Y25319889D02*
X88706489Y25319889D01*
X86166489Y27859889D02*
X24800089Y27859889D01*
X24800089Y27859889D02*
X21929889Y24989689D01*
X88706489Y25319889D02*
X86166489Y27859889D01*
X21929889Y24989689D02*
X21929889Y22830689D01*
%TO.N,/RC6*%
X25739889Y26437489D02*
X24469889Y25167489D01*
X85099689Y26437489D02*
X25739889Y26437489D01*
X91271889Y22779889D02*
X88757289Y22779889D01*
X24469889Y25167489D02*
X24469889Y22830689D01*
X88757289Y22779889D02*
X85099689Y26437489D01*
%TO.N,/RC7*%
X27746489Y25040489D02*
X27009889Y24303889D01*
X27009889Y24303889D02*
X27009889Y22830689D01*
X84159889Y25040489D02*
X27746489Y25040489D01*
X88960489Y20239889D02*
X84159889Y25040489D01*
X91271889Y20239889D02*
X88960489Y20239889D01*
%TO.N,/RD4*%
X24876289Y20366889D02*
X21879689Y17370289D01*
X29549889Y22830689D02*
X29549889Y21611489D01*
X21879689Y17370289D02*
X21879689Y10439689D01*
X28305289Y20366889D02*
X24876289Y20366889D01*
X29549889Y21611489D02*
X28305289Y20366889D01*
%TO.N,/RD5*%
X26654289Y18030089D02*
X24419689Y15795489D01*
X32089889Y22830689D02*
X32089889Y21433689D01*
X28686289Y18030089D02*
X26654289Y18030089D01*
X32089889Y21433689D02*
X28686289Y18030089D01*
X24419689Y15795489D02*
X24419689Y10439689D01*
%TO.N,/RD6*%
X26959689Y13560289D02*
X26959689Y10439689D01*
X34629889Y21230489D02*
X26959689Y13560289D01*
X34629889Y22830689D02*
X34629889Y21230489D01*
%TO.N,/RD7*%
X29499689Y10439689D02*
X29499689Y13153889D01*
X37169889Y20824089D02*
X37169889Y22830689D01*
X29499689Y13153889D02*
X37169889Y20824089D01*
%TO.N,/RB0*%
X71699089Y11567889D02*
X74660289Y8606689D01*
X87683289Y8624889D02*
X87715889Y8657489D01*
X87683289Y4487689D02*
X87683289Y8624889D01*
X84253289Y1057689D02*
X87683289Y4487689D01*
X74660289Y2480689D02*
X76083289Y1057689D01*
X61403289Y3097689D02*
X62893289Y4587689D01*
X39506689Y10384689D02*
X39506689Y14651889D01*
X39506689Y14651889D02*
X44789889Y19935089D01*
X64780889Y10271589D02*
X64780889Y11567889D01*
X74660289Y8606689D02*
X74660289Y2480689D01*
X71280889Y11567889D02*
X71699089Y11567889D01*
X39506689Y10384689D02*
X39506689Y4644289D01*
X76083289Y1057689D02*
X84253289Y1057689D01*
X62893289Y8383989D02*
X64780889Y10271589D01*
D25*
X71280889Y11567889D02*
X64780889Y11567889D01*
D24*
X62893289Y4587689D02*
X62893289Y8383989D01*
X41053289Y3097689D02*
X61403289Y3097689D01*
X39506689Y4644289D02*
X41053289Y3097689D01*
X44789889Y19935089D02*
X44789889Y22830689D01*
%TO.N,/RB1*%
X47329889Y19477889D02*
X47329889Y22830689D01*
X61096689Y11535159D02*
X65204019Y15642489D01*
X60243289Y4857689D02*
X61096689Y5711089D01*
X42046689Y10384689D02*
X42046689Y14194689D01*
X65204019Y15642489D02*
X72323489Y15642489D01*
X43484289Y4857689D02*
X60243289Y4857689D01*
X77657489Y10308489D02*
X77657489Y3374289D01*
X42046689Y10384689D02*
X42046689Y6295289D01*
X72323489Y15642489D02*
X77657489Y10308489D01*
X42046689Y6295289D02*
X43484289Y4857689D01*
X42046689Y14194689D02*
X47329889Y19477889D01*
X61096689Y5711089D02*
X61096689Y11535159D01*
%TO.N,/RB2*%
X49869889Y19503289D02*
X49869889Y22830689D01*
X44586689Y14220089D02*
X49869889Y19503289D01*
X44586689Y10384689D02*
X44586689Y14220089D01*
%TO.N,/RB3*%
X52409889Y19782689D02*
X52409889Y22830689D01*
X47126689Y10384689D02*
X47126689Y14499489D01*
X47126689Y14499489D02*
X52409889Y19782689D01*
%TO.N,/RB4*%
X49666689Y14626489D02*
X54949889Y19909689D01*
X49666689Y10384689D02*
X49666689Y14626489D01*
X54949889Y19909689D02*
X54949889Y22830689D01*
%TO.N,/RB5*%
X52206689Y14651889D02*
X57489889Y19935089D01*
X57489889Y19935089D02*
X57489889Y22830689D01*
X52206689Y10384689D02*
X52206689Y14651889D01*
%TO.N,Net-(C1-Pad1)*%
X32366401Y38347201D02*
X32366401Y47087689D01*
X29877201Y49576889D02*
X25536689Y49576889D01*
X32089889Y38070689D02*
X32366401Y38347201D01*
D25*
X32166089Y38146889D02*
X32089889Y38070689D01*
D24*
X32366401Y47087689D02*
X29877201Y49576889D01*
D25*
X32366401Y47087689D02*
X32166089Y46887377D01*
D24*
X21996433Y46036633D02*
X19720089Y46036633D01*
X25536689Y49576889D02*
X21996433Y46036633D01*
%TO.N,Net-(C2-Pad2)*%
X13674889Y45284289D02*
X13674889Y46020889D01*
X27365489Y47087689D02*
X23149089Y42871289D01*
D25*
X27289289Y47087689D02*
X27486401Y47087689D01*
D24*
X29549889Y45024201D02*
X27486401Y47087689D01*
X27486401Y47087689D02*
X27365489Y47087689D01*
X16087889Y42871289D02*
X13674889Y45284289D01*
X29549889Y38070689D02*
X29549889Y45024201D01*
X23149089Y42871289D02*
X16087889Y42871289D01*
D25*
%TO.N,/RA4*%
X51317689Y51481889D02*
X51317689Y62645189D01*
X49869889Y38070689D02*
X49869889Y50034089D01*
X49869889Y50034089D02*
X51317689Y51481889D01*
%TO.N,Net-(D1-Pad2)*%
X77657489Y18690489D02*
X78673489Y19706489D01*
X77657489Y16074289D02*
X77657489Y18690489D01*
%TO.N,/RA3*%
X53857689Y49170489D02*
X53857689Y62645189D01*
X52409889Y38070689D02*
X52409889Y47722689D01*
X52409889Y47722689D02*
X53857689Y49170489D01*
%TO.N,/RA5*%
X48777689Y54098089D02*
X48777689Y62645189D01*
X47507689Y52828089D02*
X48777689Y54098089D01*
X47507689Y38248489D02*
X47507689Y52828089D01*
X47329889Y38070689D02*
X47507689Y38248489D01*
%TO.N,/RE0*%
X44789889Y54834689D02*
X46237689Y56282489D01*
X46237689Y56282489D02*
X46237689Y62645189D01*
X44789889Y38070689D02*
X44789889Y54834689D01*
%TO.N,/RE1*%
X43590369Y57876969D02*
X43590369Y62537869D01*
X42249889Y56536489D02*
X43590369Y57876969D01*
X42249889Y38070689D02*
X42249889Y56536489D01*
X43590369Y62537869D02*
X43697689Y62645189D01*
%TO.N,/RE2*%
X39709889Y38070689D02*
X39709889Y58365289D01*
X41157689Y59813089D02*
X41157689Y62645189D01*
X39709889Y58365289D02*
X41157689Y59813089D01*
%TD*%
M02*
